<svg xmlns="http://www.w3.org/2000/svg" xmlns:xlink="http://www.w3.org/1999/xlink" viewBox="55.814 123.695 844.93 497.631" width="844.93" height="497.631" xmlns:v="https://vecta.io/nano"><style><![CDATA[.B{fill:#fff}.C{fill:none}.D{stroke-linejoin:round}.E{stroke-miterlimit:10}.F{stroke-width:4}.G{stroke:#37353f}.H{stroke:#fff}.I{stroke:#3d3a3b}]]></style><path d="M217.191 384.906v-31.045" class="B"/><path d="M217.191 384.906v-31.045" class="C D E F G"/><path d="M224.722 499.387h-15.063l2.231-128.064h10.601l2.231 128.064" class="B"/><path d="M224.722 499.387h-15.063l2.231-128.064h10.601z" class="C D E F G"/><path d="M256.746 384.906v-31.045" class="B"/><path d="M256.746 384.906v-31.045" class="C D E F G"/><path d="M264.277 499.387h-15.063l2.231-128.064h10.601l2.231 128.064" class="B"/><path d="M264.277 499.387h-15.063l2.231-128.064h10.601z" class="C D E F G"/><path d="M301.634 384.906v-31.045" class="B"/><path d="M301.634 384.906v-31.045" class="C D E F G"/><path d="M309.165 499.387h-15.063l2.231-128.064h10.6l2.232 128.064" class="B"/><path d="M309.165 499.387h-15.063l2.231-128.064h10.6z" class="C D E F G"/><path d="M335.854 384.906v-31.045" class="B"/><path d="M335.854 384.906v-31.045" class="C D E F G"/><path d="M343.386 499.387h-15.063l2.232-128.064h10.599l2.232 128.064" class="B"/><path d="M343.386 499.387h-15.063l2.232-128.064h10.599z" class="C D E F G"/><path d="M164.905 497l50.089-45.763c13.339-10.416 32.375-8.775 43.764 3.772l29.303 32.283 9.169-15.307c9.449-15.773 29.967-20.552 45.325-10.557l34.477 22.436a16.02 16.02 0 0 1 7.259 13.431h0-219.386V497" class="B"/><path d="M164.905 497l50.089-45.763c13.339-10.416 32.375-8.775 43.764 3.772l29.303 32.283 9.169-15.307c9.449-15.773 29.967-20.552 45.325-10.557l34.477 22.436a16.02 16.02 0 0 1 7.259 13.431h0-219.386z" class="C D E F I"/><path d="M317.885 170.464c.351-1.036.553-2.121.553-3.248 0-4.941-3.615-9.184-8.789-11.065.521-1.283.817-2.652.817-4.081 0-7.06-6.909-12.784-15.429-12.784-7.209 0-13.247 4.104-14.94 9.641-.163-.003-.323-.019-.488-.019-10.192 0-18.455 6.412-18.455 14.321 0 2.643.937 5.109 2.547 7.235h54.184" class="B"/><path d="M317.885 170.464c.351-1.036.553-2.121.553-3.248 0-4.941-3.615-9.184-8.789-11.065.521-1.283.817-2.652.817-4.081 0-7.06-6.909-12.784-15.429-12.784-7.209 0-13.247 4.104-14.94 9.641-.163-.003-.323-.019-.488-.019-10.192 0-18.455 6.412-18.455 14.321 0 2.643.937 5.109 2.547 7.235z" class="C D E F G"/><path d="M710.194 154.875c.352-1.036.555-2.121.555-3.248 0-4.941-3.616-9.184-8.791-11.065.521-1.283.817-2.652.817-4.081 0-7.06-6.908-12.784-15.429-12.784-7.209 0-13.247 4.104-14.939 9.643-.164-.004-.324-.02-.489-.02-10.192 0-18.455 6.412-18.455 14.321 0 2.643.939 5.109 2.547 7.235h54.184" class="B"/><path d="M710.194 154.875c.352-1.036.555-2.121.555-3.248 0-4.941-3.616-9.184-8.791-11.065.521-1.283.817-2.652.817-4.081 0-7.06-6.908-12.784-15.429-12.784-7.209 0-13.247 4.104-14.939 9.643-.164-.004-.324-.02-.489-.02-10.192 0-18.455 6.412-18.455 14.321 0 2.643.939 5.109 2.547 7.235z" class="C D E F G"/><path d="M771.545 162.767l-34.259 16.091v232.414h68.517V178.857l-34.259-16.091" class="B"/><path d="M771.545 162.767l-34.259 16.091v232.414h68.517V178.857z" class="C D E F G"/><path d="M771.545 184.299l-44.472 20.887v301.703h88.942V205.185l-44.471-20.887" class="B"/><path d="M771.545 184.299l-44.472 20.887v301.703h88.942V205.185z" class="C D E F G"/><path d="M771.545 208.229l-55.981 26.293v379.791h111.962V234.522l-55.981-26.293" class="B"/><path d="M771.545 208.229l-55.981 26.293v379.791h111.962V234.522z" class="C D E F G"/><path d="M771.545 249.818l-26.407 12.403v334.772h52.813V262.221l-26.407-12.403" class="B"/><path d="M771.545 249.818l-26.407 12.403v334.772h52.813V262.221z" class="C D E F G"/><path d="M745.138 332.173h52.813" class="B"/><path d="M745.138 332.173h52.813" class="C D E F G"/><path d="M745.138 411.271h52.813" class="B"/><path d="M745.138 411.271h52.813" class="C D E F G"/><path d="M745.138 490.37h52.813" class="B"/><path d="M745.138 490.37h52.813" class="C D E F G"/><path d="M722.866 256.4h9.447" class="B"/><path d="M722.866 256.4h9.447" class="C D E F H"/><path d="M722.866 273.214h9.447" class="B"/><path d="M722.866 273.214h9.447" class="C D E F H"/><path d="M722.866 290.029h9.447" class="B"/><path d="M722.866 290.029h9.447" class="C D E F H"/><path d="M722.866 306.844h9.447" class="B"/><path d="M722.866 306.844h9.447" class="C D E F H"/><path d="M722.866 323.658h9.447" class="B"/><path d="M722.866 323.658h9.447" class="C D E F H"/><path d="M722.866 340.473h9.447" class="B"/><path d="M722.866 340.473h9.447" class="C D E F H"/><path d="M722.866 357.287h9.447" class="B"/><path d="M722.866 357.287h9.447" class="C D E F H"/><path d="M722.866 374.102h9.447" class="B"/><path d="M722.866 374.102h9.447" class="C D E F H"/><path d="M722.866 390.918h9.447" class="B"/><path d="M722.866 390.918h9.447" class="C D E F H"/><path d="M722.866 407.733h9.447" class="B"/><path d="M722.866 407.733h9.447" class="C D E F H"/><path d="M722.866 424.547h9.447" class="B"/><path d="M722.866 424.547h9.447" class="C D E F H"/><path d="M722.866 441.362h9.447" class="B"/><path d="M722.866 441.362h9.447" class="C D E F H"/><path d="M722.866 458.177h9.447" class="B"/><path d="M722.866 458.177h9.447" class="C D E F H"/><path d="M722.866 474.991h9.447" class="B"/><path d="M722.866 474.991h9.447" class="C D E F H"/><path d="M722.866 491.806h9.447" class="B"/><path d="M722.866 491.806h9.447" class="C D E F H"/><path d="M722.866 508.62h9.447" class="B"/><path d="M722.866 508.62h9.447" class="C D E F H"/><path d="M722.866 525.435h9.447" class="B"/><path d="M722.866 525.435h9.447" class="C D E F H"/><path d="M722.866 542.251h9.447" class="B"/><path d="M722.866 542.251h9.447" class="C D E F H"/><path d="M722.866 559.065h9.447" class="B"/><path d="M722.866 559.065h9.447" class="C D E F H"/><path d="M722.866 575.881h9.447" class="B"/><path d="M722.866 575.881h9.447" class="C D E F H"/><path d="M722.866 592.695h9.447" class="B"/><path d="M722.866 592.695h9.447" class="C D E F H"/><path d="M810.775 256.4h9.447" class="B"/><path d="M810.775 256.4h9.447" class="C D E F H"/><path d="M810.775 273.214h9.447" class="B"/><path d="M810.775 273.214h9.447" class="C D E F H"/><path d="M810.775 290.029h9.447" class="B"/><path d="M810.775 290.029h9.447" class="C D E F H"/><path d="M810.775 306.844h9.447" class="B"/><path d="M810.775 306.844h9.447" class="C D E F H"/><path d="M810.775 323.658h9.447" class="B"/><path d="M810.775 323.658h9.447" class="C D E F H"/><path d="M810.775 340.473h9.447" class="B"/><path d="M810.775 340.473h9.447" class="C D E F H"/><path d="M810.775 357.287h9.447" class="B"/><path d="M810.775 357.287h9.447" class="C D E F H"/><path d="M810.775 374.102h9.447" class="B"/><path d="M810.775 374.102h9.447" class="C D E F H"/><path d="M810.775 390.918h9.447" class="B"/><path d="M810.775 390.918h9.447" class="C D E F H"/><path d="M810.775 407.733h9.447" class="B"/><path d="M810.775 407.733h9.447" class="C D E F H"/><path d="M810.775 424.547h9.447" class="B"/><path d="M810.775 424.547h9.447" class="C D E F H"/><path d="M810.775 441.362h9.447" class="B"/><path d="M810.775 441.362h9.447" class="C D E F H"/><path d="M810.775 458.177h9.447" class="B"/><path d="M810.775 458.177h9.447" class="C D E F H"/><path d="M810.775 474.991h9.447" class="B"/><path d="M810.775 474.991h9.447" class="C D E F H"/><path d="M810.775 491.806h9.447" class="B"/><path d="M810.775 491.806h9.447" class="C D E F H"/><path d="M810.775 508.62h9.447" class="B"/><path d="M810.775 508.62h9.447" class="C D E F H"/><path d="M810.775 525.435h9.447" class="B"/><path d="M810.775 525.435h9.447" class="C D E F H"/><path d="M810.775 542.251h9.447" class="B"/><path d="M810.775 542.251h9.447" class="C D E F H"/><path d="M810.775 559.065h9.447" class="B"/><path d="M810.775 559.065h9.447" class="C D E F H"/><path d="M810.775 575.881h9.447" class="B"/><path d="M810.775 575.881h9.447" class="C D E F H"/><path d="M810.775 592.695h9.447" class="B"/><path d="M828.843 612.519s.631-1.797 69.672.753" class="C D E F H"/><path d="M643.977 564.16l131.374-96.424-113.166 96.424" class="B"/><path d="M643.977 564.16l131.374-96.424-113.166 96.424" class="C D E F G"/><path d="M680.137 564.16l95.214-96.424-79.297 98.829" class="B"/><path d="M680.137 564.16l95.214-96.424-79.297 98.829" class="C D E F G"/><path d="M899.945 560.284l-124.593-92.548 123.401 102.514" class="B"/><path d="M900.628 559.529l-125.277-91.792s125.109 103.662 120.637 103.708" class="C D E F G"/><path d="M875.964 568.077l-100.613-100.34 83.793 102.843" class="B"/><path d="M878.361 569.068l-103.01-101.332 80.452 100.272" class="C D E F G"/><path d="M793.114 616.79l-8.077-1.794L817.41 566.2l-42.059-87.916-42.057 87.916 32.373 48.796-9.353.224-33.462-48.29 52.499-109.741 52.5 109.741-34.934 48.977" class="B"/><path d="M793.187 616.456l-8.151-1.46L817.41 566.2l-42.059-87.916-42.057 87.916 32.373 48.796-10.031 1.46-32.784-49.526 52.499-109.741 52.5 109.741-34.664 49.526z" class="C D E F G"/><path d="M899.239 608.599c0 10.015-42.214 3.061-42.214-6.954 0 10.015-15.024 10.015-15.024 0 0 10.015-16.458 11.966-16.458 1.951 0 10.015-13.585 8.063-13.585-1.951 0 10.015-15.021 10.015-15.021 0 0 10.015-15.023 10.015-15.023 0 0 10.015-15.023 10.015-15.023 0 0 10.015-15.021 10.015-15.021 0 0 10.015-15.021 10.015-15.021 0-.001 10.015-15.021 10.015-15.023 0 0 10.015-15.021 10.015-15.023 0v15.023" class="B"/><path d="M891.571 602.822c0 9.23-8.399 9.23-8.399 0 0 9.23-8.398 9.23-8.398 0 0 9.23-8.4 9.23-8.4 0 0 9.23-8.398 9.23-8.398 0 0 9.23-8.398 9.23-8.398 0 0 9.23-8.399 9.23-8.399 0 0 9.23-8.398 9.23-8.398 0 0 9.23-8.399 9.23-8.399 0 0 9.23-8.398 9.23-8.398 0 0 9.23-8.399 9.23-8.399 0 0 9.23-8.398 9.23-8.398 0 0 9.23-8.398 9.23-8.398 0 0 9.23-8.4 9.23-8.4 0 0 9.23-8.397 9.23-8.397 0 0 9.23-8.399 9.23-8.399 0 0 9.23-8.398 9.23-8.398 0 0 9.23-8.399 9.23-8.399 0 0 9.23-8.399 9.23-8.399 0 0 9.23-8.398 9.23-8.398 0 0 9.23-8.398 9.23-8.398 0-.001 9.23-8.398 9.23-8.399 0 0 9.23-8.398 9.23-8.399 0v13.846h193.165v-13.846c0 9.23-8.397 9.23-8.397 0z" class="C D E F G"/><path d="M898.967 569.122l-263.656 4.142v-13.399l265.432 9.849" class="B"/><path d="M899.303 571.15l-263.993 2.115v-13.399l263.993 11.284z" class="C D E F G"/><path d="M606.589 248.524H503.376v-21.547h103.213v21.547" class="B"/><path d="M606.589 248.524H503.376v-21.547h103.213z" class="C D E F G"/><path d="M595.921 241.342h-81.877v-7.183h81.877v7.183" class="B"/><path d="M595.921 241.342h-81.877v-7.183h81.877z" class="C D E F G"/><path d="M515.923 248.524l17.673 14.365v7.181h42.775v-7.181l17.672-14.365h-78.12" class="B"/><path d="M515.923 248.524l17.673 14.365v7.181h42.775v-7.181l17.672-14.365z" class="C D E F G"/><path d="M620.198 568.852H489.767V285.154h130.432v283.698" class="B"/><path d="M620.198 568.852H489.767V285.154h130.432z" class="C D E F G"/><path d="M620.198 285.154V270.07H489.767v15.084h49.128v283.698h-49.128l.502 48.381 130.432-.753-.502-47.629h-49.127V285.154h49.127" class="B"/><path d="M620.198 285.154V270.07H489.767v15.084h49.128v283.698h-49.128v47.777l128.641-.358 1.791-47.419h-49.127V285.154h49.127z" class="C D E F G"/><path d="M489.767 300.85h49.128" class="B"/><path d="M489.767 300.85h49.128" class="C D E F G"/><path d="M489.767 314.129h49.128" class="B"/><path d="M489.767 314.129h49.128" class="C D E F G"/><path d="M489.767 327.409h49.128" class="B"/><path d="M489.767 327.409h49.128" class="C D E F G"/><path d="M489.767 340.688h49.128" class="B"/><path d="M489.767 340.688h49.128" class="C D E F G"/><path d="M489.767 353.967h49.128" class="B"/><path d="M489.767 353.967h49.128" class="C D E F G"/><path d="M489.767 367.246h49.128" class="B"/><path d="M489.767 367.246h49.128" class="C D E F G"/><path d="M489.767 380.526h49.128" class="B"/><path d="M489.767 380.526h49.128" class="C D E F G"/><path d="M489.767 393.805h49.128" class="B"/><path d="M489.767 393.805h49.128" class="C D E F G"/><path d="M489.767 407.085h49.128" class="B"/><path d="M489.767 407.085h49.128" class="C D E F G"/><path d="M489.767 420.363h49.128" class="B"/><path d="M489.767 420.363h49.128" class="C D E F G"/><path d="M489.767 433.643h49.128" class="B"/><path d="M489.767 433.643h49.128" class="C D E F G"/><path d="M489.767 446.922h49.128" class="B"/><path d="M489.767 446.922h49.128" class="C D E F G"/><path d="M489.767 460.202h49.128" class="B"/><path d="M489.767 460.202h49.128" class="C D E F G"/><path d="M489.767 473.481h49.128" class="B"/><path d="M489.767 473.481h49.128" class="C D E F G"/><path d="M489.767 486.76h49.128" class="B"/><path d="M489.767 486.76h49.128" class="C D E F G"/><path d="M489.767 500.039h49.128" class="B"/><path d="M489.767 500.039h49.128" class="C D E F G"/><path d="M489.767 513.319h49.128" class="B"/><path d="M489.767 513.319h49.128" class="C D E F G"/><path d="M489.767 526.598h49.128" class="B"/><path d="M489.767 526.598h49.128" class="C D E F G"/><path d="M489.767 539.876h49.128" class="B"/><path d="M489.767 539.876h49.128" class="C D E F G"/><path d="M489.767 553.156h49.128" class="B"/><path d="M489.767 553.156h49.128" class="C D E F G"/><path d="M571.072 300.85h49.127" class="B"/><path d="M571.072 300.85h49.127" class="C D E F G"/><path d="M571.072 314.129h49.127" class="B"/><path d="M571.072 314.129h49.127" class="C D E F G"/><path d="M571.072 327.409h49.127" class="B"/><path d="M571.072 327.409h49.127" class="C D E F G"/><path d="M571.072 340.688h49.127" class="B"/><path d="M571.072 340.688h49.127" class="C D E F G"/><path d="M571.072 353.967h49.127" class="B"/><path d="M571.072 353.967h49.127" class="C D E F G"/><path d="M571.072 367.246h49.127" class="B"/><path d="M571.072 367.246h49.127" class="C D E F G"/><path d="M571.072 380.526h49.127" class="B"/><path d="M571.072 380.526h49.127" class="C D E F G"/><path d="M571.072 393.805h49.127" class="B"/><path d="M571.072 393.805h49.127" class="C D E F G"/><path d="M571.072 407.085h49.127" class="B"/><path d="M571.072 407.085h49.127" class="C D E F G"/><path d="M571.072 420.363h49.127" class="B"/><path d="M571.072 420.363h49.127" class="C D E F G"/><path d="M571.072 433.643h49.127" class="B"/><path d="M571.072 433.643h49.127" class="C D E F G"/><path d="M571.072 446.922h49.127" class="B"/><path d="M571.072 446.922h49.127" class="C D E F G"/><path d="M571.072 460.202h49.127" class="B"/><path d="M571.072 460.202h49.127" class="C D E F G"/><path d="M571.072 473.481h49.127" class="B"/><path d="M571.072 473.481h49.127" class="C D E F G"/><path d="M571.072 486.76h49.127" class="B"/><path d="M571.072 486.76h49.127" class="C D E F G"/><path d="M571.072 500.039h49.127" class="B"/><path d="M571.072 500.039h49.127" class="C D E F G"/><path d="M571.072 513.319h49.127" class="B"/><path d="M571.072 513.319h49.127" class="C D E F G"/><path d="M571.072 526.598h49.127" class="B"/><path d="M571.072 526.598h49.127" class="C D E F G"/><path d="M571.072 539.876h49.127" class="B"/><path d="M571.072 539.876h49.127" class="C D E F G"/><path d="M571.072 553.156h49.127" class="B"/><path d="M571.072 553.156h49.127" class="C D E F G"/><path d="M739.067 616.958H602.604l.753-49.827h135.71l-.251 51.082" class="B"/><path d="M738.351 616.711l-134.994-1.074v-48.506h135.71l-.716 49.581z" class="C D E F G"/><path d="M593.749 567.131h154.926v-13.318H593.749v13.318" class="B"/><path d="M593.749 567.131h154.926v-13.318H593.749z" class="C D E F G"/><path d="M699.261 530.736h-56.096l-22.004 10.549v12.528h100.104v-12.528l-22.004-10.549" class="B"/><path d="M699.261 530.736h-56.096l-22.004 10.549v12.528h100.104v-12.528z" class="C D E F G"/><path d="M695.609 564.864l7.912-11.051-32.308-23.077-32.308 23.077 7.912 11.051v49.45h-7.912l-1.255 2.141 65.871-.251v-1.89h-7.912v-49.45" class="B"/><path d="M695.609 564.864l7.912-11.051-32.308-23.077-32.308 23.077 7.912 11.051v49.45h-7.912l-.546 1.233 64.634.734.528-1.967h-7.912v-49.45z" class="C D E F G"/><path d="M671.213 330.842s-8.301 12.597-8.301 22.081h16.603c0-9.484-8.301-22.081-8.301-22.081" class="B"/><path d="M671.213 330.842s-8.301 12.597-8.301 22.081h16.603c0-9.484-8.301-22.081-8.301-22.081z" class="C D E F G"/><path d="M677.197 378.931h-11.969v-26.008h11.969v26.008" class="B"/><path d="M677.197 378.931h-11.969v-26.008h11.969z" class="C D E F G"/><path d="M623.71 576.319c-4.229 0-7.659 3.51-7.659 7.843v34.448h15.317v-34.448c0-4.332-3.428-7.843-7.659-7.843" class="B"/><path d="M623.71 576.319c-4.229 0-7.659 3.51-7.659 7.843v32.093l13.285-.018 2.032-32.075c0-4.332-3.428-7.843-7.659-7.843z" class="C D E F G"/><path d="M718.716 576.319c-4.231 0-7.66 3.51-7.66 7.843v34.448h15.317v-34.448c0-4.332-3.429-7.843-7.657-7.843" class="B"/><path d="M718.716 576.319c-4.231 0-7.66 3.51-7.66 7.843l-.376 32.38 15.505-.188.188-32.192c0-4.332-3.429-7.843-7.657-7.843z" class="C D E F G"/><path d="M671.213 572.51c-4.923 0-8.913 4.087-8.913 9.128l-1.004 36.324s18.83-12.56 18.83-1.004v-35.32c0-5.042-3.991-9.128-8.913-9.128" class="B"/><path d="M671.213 572.51c-4.923 0-8.913 4.087-8.913 9.128l-1.88 34.071 19.519.94.188-35.011c0-5.042-3.991-9.128-8.913-9.128z" class="C D E F G"/><path d="M671.213 382.501s-22.004-1.191-22.004 24.383v28.772h44.008v-28.772c0-25.573-22.004-24.383-22.004-24.383" class="B"/><path d="M671.213 382.501s-22.004-1.191-22.004 24.383v28.772h44.008v-28.772c0-25.573-22.004-24.383-22.004-24.383z" class="C D E F G"/><path d="M650.394 370.011l5.864 17.841h29.908l5.864-17.841h-41.636" class="B"/><path d="M650.394 370.011l5.864 17.841h29.908l5.864-17.841z" class="C D E F G"/><path d="M603.357 616.958l-6.95.502 1.004-50.329h5.947l-.502 50.078" class="B"/><path d="M602.641 616.353h-7.379l2.149-49.222h5.947l-.716 49.222z" class="C D E F G"/><path d="M744.763 617.961l-6.449-1.004.753-49.827h5.947l-.251 50.078" class="B"/><path d="M745.014 616.273l-7.075-.188 1.128-48.954h5.947v49.142z" class="C D E F G"/><path d="M692.705 507.84h-42.984v-65.417h42.984v65.417" class="B"/><path d="M692.705 507.84h-42.984v-65.417h42.984z" class="C D E F G"/><path d="M693.217 435.655h-11.596l-6.195-22.231h-8.428l-6.195 22.231h-11.595l-.239 6.768h44.484l-.237-6.768" class="B"/><path d="M693.217 435.655h-11.596l-6.195-22.231h-8.428l-6.195 22.231h-11.595l-.239 6.768h44.484z" class="C D E F G"/><path d="M671.213 424.614s-8.301 12.599-8.301 22.081h16.603c0-9.483-8.301-22.081-8.301-22.081" class="B"/><path d="M671.213 424.614s-8.301 12.599-8.301 22.081h16.603c0-9.483-8.301-22.081-8.301-22.081z" class="C D E F G"/><path d="M671.213 460.038c-4.923 0-8.913 4.088-8.913 9.129v40.088h17.827v-40.088c0-5.041-3.991-9.129-8.913-9.129" class="B"/><path d="M671.213 460.038c-4.923 0-8.913 4.088-8.913 9.129v40.088h17.827v-40.088c0-5.041-3.991-9.129-8.913-9.129z" class="C D E F G"/><path d="M688.162 507.84h-33.899v19.625h33.899V507.84" class="B"/><path d="M688.162 507.84h-33.899v19.625h33.899z" class="C D E F G"/><path d="M654.986 466.353h-11.895v-6.315h11.895v6.315" class="B"/><path d="M654.986 466.353h-11.895v-6.315h11.895z" class="C D E F G"/><path d="M649.038 527.466h5.948v-61.113h-5.948v61.113" class="B"/><path d="M649.038 527.466h5.948v-61.113h-5.948z" class="C D E F G"/><path d="M687.44 466.353h11.893v-6.315H687.44v6.315" class="B"/><path d="M687.44 466.353h11.893v-6.315H687.44z" class="C D E F G"/><path d="M693.386 527.466h-5.947v-61.113h5.947v61.113" class="B"/><path d="M693.386 527.466h-5.947v-61.113h5.947z" class="C D E F G"/><path d="M593.749 553.813v-11.539" class="B"/><path d="M593.749 553.813v-11.539" class="C D E F G"/><path d="M748.675 553.813v-11.539" class="B"/><path d="M748.675 553.813v-11.539" class="C D E F G"/><path d="M401.242 613.873H165.939l1.916-116.2h233.387" class="B"/><path d="M400.1 615.918l-232.245-.571V497.674h233.387L400.1 615.918z" class="C D E F G"/><path d="M187.18 518.486h196.224" class="B"/><path d="M187.18 518.486h196.224" class="C D E F G"/><path d="M187.18 531.864h196.224" class="B"/><path d="M187.18 531.864h196.224" class="C D E F G"/><path d="M187.18 545.243h196.224" class="B"/><path d="M187.18 545.243h196.224" class="C D E F G"/><path d="M187.18 558.623h196.224" class="B"/><path d="M187.18 558.623h196.224" class="C D E F G"/><path d="M213.846 572.002H410.07" class="B"/><path d="M213.846 572.002H410.07" class="C D E F G"/><path d="M213.846 585.381H410.07" class="B"/><path d="M213.846 585.381H410.07" class="C D E F G"/><path d="M213.846 598.759H410.07" class="B"/><path d="M213.846 598.759H410.07" class="C D E F G"/><path d="M174.7 619.057H56.033V261.522H174.7v357.535" class="B"/><path d="M174.7 615.913l-118.666.286V261.522H174.7v354.39z" class="C D E F G"/><path d="M69.086 271.74h47.467" class="B"/><path d="M69.086 271.74h47.467" class="C D E F H"/><path d="M125.352 271.74H139.1" class="B"/><path d="M125.352 271.74H139.1" class="C D E F H"/><use xlink:href="#B" class="B"/><use xlink:href="#B" class="C D E F H"/><path d="M69.086 279.322h47.467" class="B"/><path d="M69.086 279.322h47.467" class="C D E F H"/><path d="M125.352 279.322H139.1" class="B"/><path d="M125.352 279.322H139.1" class="C D E F H"/><use xlink:href="#B" y="7.582" class="B"/><use xlink:href="#B" y="7.582" class="C D E F H"/><path d="M69.086 286.904h47.467" class="B"/><path d="M69.086 286.904h47.467" class="C D E F H"/><path d="M125.352 286.904H139.1" class="B"/><path d="M125.352 286.904H139.1" class="C D E F H"/><use xlink:href="#B" y="15.164" class="B"/><use xlink:href="#B" y="15.164" class="C D E F H"/><path d="M69.086 294.486h47.467" class="B"/><path d="M69.086 294.486h47.467" class="C D E F H"/><path d="M125.352 294.486H139.1" class="B"/><path d="M125.352 294.486H139.1" class="C D E F H"/><use xlink:href="#B" y="22.746" class="B"/><use xlink:href="#B" y="22.746" class="C D E F H"/><path d="M69.086 302.068h47.467" class="B"/><path d="M69.086 302.068h47.467" class="C D E F H"/><path d="M125.352 302.068H139.1" class="B"/><path d="M125.352 302.068H139.1" class="C D E F H"/><use xlink:href="#B" y="30.328" class="B"/><use xlink:href="#B" y="30.328" class="C D E F H"/><path d="M69.086 309.649h47.467" class="B"/><path d="M69.086 309.649h47.467" class="C D E F H"/><path d="M125.352 309.649H139.1" class="B"/><path d="M125.352 309.649H139.1" class="C D E F H"/><use xlink:href="#B" y="37.909" class="B"/><use xlink:href="#B" y="37.909" class="C D E F H"/><path d="M69.086 317.232h47.467" class="B"/><path d="M69.086 317.232h47.467" class="C D E F H"/><path d="M125.352 317.232H139.1" class="B"/><path d="M125.352 317.232H139.1" class="C D E F H"/><use xlink:href="#B" y="45.492" class="B"/><use xlink:href="#B" y="45.492" class="C D E F H"/><path d="M69.086 324.813h47.467" class="B"/><path d="M69.086 324.813h47.467" class="C D E F H"/><path d="M125.352 324.813H139.1" class="B"/><path d="M125.352 324.813H139.1" class="C D E F H"/><use xlink:href="#B" y="53.073" class="B"/><use xlink:href="#B" y="53.073" class="C D E F H"/><path d="M69.086 332.394h47.467" class="B"/><path d="M69.086 332.394h47.467" class="C D E F H"/><path d="M125.352 332.394H139.1" class="B"/><path d="M125.352 332.394H139.1" class="C D E F H"/><use xlink:href="#B" y="60.654" class="B"/><use xlink:href="#B" y="60.654" class="C D E F H"/><path d="M69.086 339.977h47.467" class="B"/><path d="M69.086 339.977h47.467" class="C D E F H"/><path d="M125.352 339.977H139.1" class="B"/><path d="M125.352 339.977H139.1" class="C D E F H"/><use xlink:href="#B" y="68.237" class="B"/><use xlink:href="#B" y="68.237" class="C D E F H"/><path d="M69.086 347.558h47.467" class="B"/><path d="M69.086 347.558h47.467" class="C D E F H"/><path d="M125.352 347.558H139.1" class="B"/><path d="M125.352 347.558H139.1" class="C D E F H"/><use xlink:href="#B" y="75.818" class="B"/><use xlink:href="#B" y="75.818" class="C D E F H"/><path d="M69.086 355.139h47.467" class="B"/><path d="M69.086 355.139h47.467" class="C D E F H"/><path d="M125.352 355.139H139.1" class="B"/><path d="M125.352 355.139H139.1" class="C D E F H"/><use xlink:href="#B" y="83.399" class="B"/><use xlink:href="#B" y="83.399" class="C D E F H"/><path d="M69.086 362.722h47.467" class="B"/><path d="M69.086 362.722h47.467" class="C D E F H"/><path d="M125.352 362.722H139.1" class="B"/><path d="M125.352 362.722H139.1" class="C D E F H"/><use xlink:href="#B" y="90.982" class="B"/><use xlink:href="#B" y="90.982" class="C D E F H"/><path d="M69.086 370.303h47.467" class="B"/><path d="M69.086 370.303h47.467" class="C D E F H"/><path d="M125.352 370.303H139.1" class="B"/><path d="M125.352 370.303H139.1" class="C D E F H"/><use xlink:href="#B" y="98.563" class="B"/><use xlink:href="#B" y="98.563" class="C D E F H"/><path d="M69.086 377.886h47.467" class="B"/><path d="M69.086 377.886h47.467" class="C D E F H"/><path d="M125.352 377.886H139.1" class="B"/><path d="M125.352 377.886H139.1" class="C D E F H"/><use xlink:href="#B" y="106.146" class="B"/><use xlink:href="#B" y="106.146" class="C D E F H"/><path d="M69.086 385.467h47.467" class="B"/><path d="M69.086 385.467h47.467" class="C D E F H"/><path d="M125.352 385.467H139.1" class="B"/><path d="M125.352 385.467H139.1" class="C D E F H"/><use xlink:href="#B" y="113.727" class="B"/><use xlink:href="#B" y="113.727" class="C D E F H"/><path d="M69.086 393.049h47.467" class="B"/><path d="M69.086 393.049h47.467" class="C D E F H"/><path d="M125.352 393.049H139.1" class="B"/><path d="M125.352 393.049H139.1" class="C D E F H"/><use xlink:href="#B" y="121.309" class="B"/><use xlink:href="#B" y="121.309" class="C D E F H"/><path d="M69.086 400.631h47.467" class="B"/><path d="M69.086 400.631h47.467" class="C D E F H"/><path d="M125.352 400.631H139.1" class="B"/><path d="M125.352 400.631H139.1" class="C D E F H"/><use xlink:href="#B" y="128.891" class="B"/><use xlink:href="#B" y="128.891" class="C D E F H"/><path d="M69.086 408.213h47.467" class="B"/><path d="M69.086 408.213h47.467" class="C D E F H"/><path d="M125.352 408.213H139.1" class="B"/><path d="M125.352 408.213H139.1" class="C D E F H"/><use xlink:href="#B" y="136.473" class="B"/><use xlink:href="#B" y="136.473" class="C D E F H"/><path d="M69.086 415.794h47.467" class="B"/><path d="M69.086 415.794h47.467" class="C D E F H"/><path d="M125.352 415.794H139.1" class="B"/><path d="M125.352 415.794H139.1" class="C D E F H"/><use xlink:href="#B" y="144.054" class="B"/><use xlink:href="#B" y="144.054" class="C D E F H"/><path d="M69.086 423.377h47.467" class="B"/><path d="M69.086 423.377h47.467" class="C D E F H"/><path d="M125.352 423.377H139.1" class="B"/><path d="M125.352 423.377H139.1" class="C D E F H"/><use xlink:href="#B" y="151.637" class="B"/><use xlink:href="#B" y="151.637" class="C D E F H"/><path d="M69.086 430.958h47.467" class="B"/><path d="M69.086 430.958h47.467" class="C D E F H"/><path d="M125.352 430.958H139.1" class="B"/><path d="M125.352 430.958H139.1" class="C D E F H"/><use xlink:href="#B" y="159.218" class="B"/><use xlink:href="#B" y="159.218" class="C D E F H"/><path d="M69.086 438.541h47.467" class="B"/><path d="M69.086 438.541h47.467" class="C D E F H"/><path d="M125.352 438.541H139.1" class="B"/><path d="M125.352 438.541H139.1" class="C D E F H"/><use xlink:href="#B" y="166.801" class="B"/><use xlink:href="#B" y="166.801" class="C D E F H"/><path d="M69.086 446.122h47.467" class="B"/><path d="M69.086 446.122h47.467" class="C D E F H"/><path d="M125.352 446.122H139.1" class="B"/><path d="M125.352 446.122H139.1" class="C D E F H"/><use xlink:href="#B" y="174.382" class="B"/><use xlink:href="#B" y="174.382" class="C D E F H"/><path d="M69.086 453.703h47.467" class="B"/><path d="M69.086 453.703h47.467" class="C D E F H"/><path d="M125.352 453.703H139.1" class="B"/><path d="M125.352 453.703H139.1" class="C D E F H"/><use xlink:href="#B" y="181.963" class="B"/><use xlink:href="#B" y="181.963" class="C D E F H"/><path d="M69.086 461.286h47.467" class="B"/><path d="M69.086 461.286h47.467" class="C D E F H"/><path d="M125.352 461.286H139.1" class="B"/><path d="M125.352 461.286H139.1" class="C D E F H"/><use xlink:href="#B" y="189.546" class="B"/><use xlink:href="#B" y="189.546" class="C D E F H"/><path d="M69.086 468.867h47.467" class="B"/><path d="M69.086 468.867h47.467" class="C D E F H"/><path d="M125.352 468.867H139.1" class="B"/><path d="M125.352 468.867H139.1" class="C D E F H"/><use xlink:href="#B" y="197.127" class="B"/><use xlink:href="#B" y="197.127" class="C D E F H"/><path d="M69.086 476.449h47.467" class="B"/><path d="M69.086 476.449h47.467" class="C D E F H"/><path d="M125.352 476.449H139.1" class="B"/><path d="M125.352 476.449H139.1" class="C D E F H"/><use xlink:href="#B" y="204.709" class="B"/><use xlink:href="#B" y="204.709" class="C D E F H"/><path d="M69.086 484.031h47.467" class="B"/><path d="M69.086 484.031h47.467" class="C D E F H"/><path d="M125.352 484.031H139.1" class="B"/><path d="M125.352 484.031H139.1" class="C D E F H"/><use xlink:href="#B" y="212.291" class="B"/><use xlink:href="#B" y="212.291" class="C D E F H"/><path d="M69.086 491.612h47.467" class="B"/><path d="M69.086 491.612h47.467" class="C D E F H"/><path d="M125.352 491.612H139.1" class="B"/><path d="M125.352 491.612H139.1" class="C D E F H"/><use xlink:href="#B" y="219.872" class="B"/><use xlink:href="#B" y="219.872" class="C D E F H"/><path d="M69.086 499.195h47.467" class="B"/><path d="M69.086 499.195h47.467" class="C D E F H"/><path d="M125.352 499.195H139.1" class="B"/><path d="M125.352 499.195H139.1" class="C D E F H"/><use xlink:href="#B" y="227.455" class="B"/><use xlink:href="#B" y="227.455" class="C D E F H"/><path d="M69.086 506.776h47.467" class="B"/><path d="M69.086 506.776h47.467" class="C D E F H"/><path d="M125.352 506.776H139.1" class="B"/><path d="M125.352 506.776H139.1" class="C D E F H"/><use xlink:href="#B" y="235.036" class="B"/><use xlink:href="#B" y="235.036" class="C D E F H"/><path d="M69.086 514.358h47.467" class="B"/><path d="M69.086 514.358h47.467" class="C D E F H"/><path d="M125.352 514.358H139.1" class="B"/><path d="M125.352 514.358H139.1" class="C D E F H"/><use xlink:href="#B" y="242.618" class="B"/><use xlink:href="#B" y="242.618" class="C D E F H"/><path d="M69.086 521.94h47.467" class="B"/><path d="M69.086 521.94h47.467" class="C D E F H"/><path d="M125.352 521.94H139.1" class="B"/><path d="M125.352 521.94H139.1" class="C D E F H"/><use xlink:href="#B" y="250.2" class="B"/><use xlink:href="#B" y="250.2" class="C D E F H"/><path d="M69.086 529.522h47.467" class="B"/><path d="M69.086 529.522h47.467" class="C D E F H"/><path d="M125.352 529.522H139.1" class="B"/><path d="M125.352 529.522H139.1" class="C D E F H"/><use xlink:href="#B" y="257.782" class="B"/><use xlink:href="#B" y="257.782" class="C D E F H"/><path d="M69.086 537.103h47.467" class="B"/><path d="M69.086 537.103h47.467" class="C D E F H"/><path d="M125.352 537.103H139.1" class="B"/><path d="M125.352 537.103H139.1" class="C D E F H"/><use xlink:href="#B" y="265.363" class="B"/><use xlink:href="#B" y="265.363" class="C D E F H"/><path d="M69.086 544.686h47.467" class="B"/><path d="M69.086 544.686h47.467" class="C D E F H"/><path d="M125.352 544.686H139.1" class="B"/><path d="M125.352 544.686H139.1" class="C D E F H"/><use xlink:href="#B" y="272.946" class="B"/><use xlink:href="#B" y="272.946" class="C D E F H"/><path d="M69.086 552.267h47.467" class="B"/><path d="M69.086 552.267h47.467" class="C D E F H"/><path d="M125.352 552.267H139.1" class="B"/><path d="M125.352 552.267H139.1" class="C D E F H"/><use xlink:href="#B" y="280.527" class="B"/><use xlink:href="#B" y="280.527" class="C D E F H"/><path d="M69.086 559.848h47.467" class="B"/><path d="M69.086 559.848h47.467" class="C D E F H"/><path d="M125.352 559.848H139.1" class="B"/><path d="M125.352 559.848H139.1" class="C D E F H"/><use xlink:href="#B" y="288.108" class="B"/><use xlink:href="#B" y="288.108" class="C D E F H"/><path d="M69.086 567.431h47.467" class="B"/><path d="M69.086 567.431h47.467" class="C D E F H"/><path d="M125.352 567.431H139.1" class="B"/><path d="M125.352 567.431H139.1" class="C D E F H"/><use xlink:href="#B" y="295.691" class="B"/><use xlink:href="#B" y="295.691" class="C D E F H"/><path d="M69.086 575.012h47.467" class="B"/><path d="M69.086 575.012h47.467" class="C D E F H"/><path d="M125.352 575.012H139.1" class="B"/><path d="M125.352 575.012H139.1" class="C D E F H"/><use xlink:href="#B" y="303.272" class="B"/><use xlink:href="#B" y="303.272" class="C D E F H"/><path d="M69.086 582.595h47.467" class="B"/><path d="M69.086 582.595h47.467" class="C D E F H"/><path d="M125.352 582.595H139.1" class="B"/><path d="M125.352 582.595H139.1" class="C D E F H"/><use xlink:href="#B" y="310.855" class="B"/><use xlink:href="#B" y="310.855" class="C D E F H"/><path d="M69.086 590.176h47.467" class="B"/><path d="M69.086 590.176h47.467" class="C D E F H"/><path d="M125.352 590.176H139.1" class="B"/><path d="M125.352 590.176H139.1" class="C D E F H"/><use xlink:href="#B" y="318.436" class="B"/><use xlink:href="#B" y="318.436" class="C D E F H"/><path d="M69.086 597.758h47.467" class="B"/><path d="M69.086 597.758h47.467" class="C D E F H"/><path d="M125.352 597.758H139.1" class="B"/><path d="M125.352 597.758H139.1" class="C D E F H"/><use xlink:href="#B" y="326.018" class="B"/><use xlink:href="#B" y="326.018" class="C D E F H"/><path d="M69.086 605.34h47.467" class="B"/><path d="M69.086 605.34h47.467" class="C D E F H"/><path d="M125.352 605.34H139.1" class="B"/><path d="M125.352 605.34H139.1" class="C D E F H"/><use xlink:href="#B" y="333.6" class="B"/><use xlink:href="#B" y="333.6" class="C D E F H"/><path d="M100.533 246.257H174.7v15.265h-74.166v-15.265" class="B"/><path d="M100.533 246.257H174.7v15.265h-74.166z" class="C D E F G"/><path d="M115.366 246.257l9.392-16.775H174.7v16.775h-59.333" class="B"/><path d="M115.366 246.257l9.392-16.775H174.7v16.775z" class="C D E F G"/><path d="M457.09 252.501h18.796v160.025H457.09V252.501" class="B"/><path d="M457.09 252.501h18.796v160.025H457.09z" class="C D E F G"/><path d="M373.856 252.501h18.795v160.025h-18.795V252.501" class="B"/><path d="M373.856 252.501h18.795v160.025h-18.795z" class="C D E F G"/><path d="M457.09 364.197h-64.439V225.652h64.439v138.545" class="B"/><path d="M457.09 364.197h-64.439V225.652h64.439z" class="C D E F G"/><path d="M466.219 412.526h-82.697v-48.329h82.697v48.329" class="B"/><path d="M466.219 412.526h-82.697v-48.329h82.697z" class="C D E F G"/><path d="M477.322 616.936l-102.029-4.789-1.437-199.621h102.029l1.916 203.931" class="B"/><path d="M475.384 616.399l-101.492-1.575-.035-202.297h102.029l-.502 203.873z" class="C D E F G"/><path d="M403.032 236.392h7.519" class="B"/><path d="M403.032 236.392h7.519" class="C D E F G"/><path d="M421.111 236.392h7.519" class="B"/><path d="M421.111 236.392h7.519" class="C D E F G"/><path d="M439.191 236.392h7.517" class="B"/><path d="M439.191 236.392h7.517" class="C D E F G"/><path d="M403.032 246.058h7.519" class="B"/><path d="M403.032 246.058h7.519" class="C D E F G"/><path d="M421.111 246.058h7.519" class="B"/><path d="M421.111 246.058h7.519" class="C D E F G"/><path d="M439.191 246.058h7.517" class="B"/><path d="M439.191 246.058h7.517" class="C D E F G"/><path d="M403.032 255.724h7.519" class="B"/><path d="M403.032 255.724h7.519" class="C D E F G"/><path d="M421.111 255.724h7.519" class="B"/><path d="M421.111 255.724h7.519" class="C D E F G"/><path d="M439.191 255.724h7.517" class="B"/><path d="M439.191 255.724h7.517" class="C D E F G"/><path d="M403.032 265.39h7.519" class="B"/><path d="M403.032 265.39h7.519" class="C D E F G"/><path d="M421.111 265.39h7.519" class="B"/><path d="M421.111 265.39h7.519" class="C D E F G"/><path d="M439.191 265.39h7.517" class="B"/><path d="M439.191 265.39h7.517" class="C D E F G"/><path d="M403.032 275.056h7.519" class="B"/><path d="M403.032 275.056h7.519" class="C D E F G"/><path d="M421.111 275.056h7.519" class="B"/><path d="M421.111 275.056h7.519" class="C D E F G"/><path d="M439.191 275.056h7.517" class="B"/><path d="M439.191 275.056h7.517" class="C D E F G"/><path d="M403.032 284.722h7.519" class="B"/><path d="M403.032 284.722h7.519" class="C D E F G"/><path d="M421.111 284.722h7.519" class="B"/><path d="M421.111 284.722h7.519" class="C D E F G"/><path d="M439.191 284.722h7.517" class="B"/><path d="M439.191 284.722h7.517" class="C D E F G"/><path d="M403.032 294.388h7.519" class="B"/><path d="M403.032 294.388h7.519" class="C D E F G"/><path d="M421.111 294.388h7.519" class="B"/><path d="M421.111 294.388h7.519" class="C D E F G"/><path d="M439.191 294.388h7.517" class="B"/><path d="M439.191 294.388h7.517" class="C D E F G"/><path d="M403.032 304.053h7.519" class="B"/><path d="M403.032 304.053h7.519" class="C D E F G"/><path d="M421.111 304.053h7.519" class="B"/><path d="M421.111 304.053h7.519" class="C D E F G"/><path d="M439.191 304.053h7.517" class="B"/><path d="M439.191 304.053h7.517" class="C D E F G"/><path d="M403.032 313.72h7.519" class="B"/><path d="M403.032 313.72h7.519" class="C D E F G"/><path d="M421.111 313.72h7.519" class="B"/><path d="M421.111 313.72h7.519" class="C D E F G"/><path d="M439.191 313.72h7.517" class="B"/><path d="M439.191 313.72h7.517" class="C D E F G"/><path d="M403.032 323.385h7.519" class="B"/><path d="M403.032 323.385h7.519" class="C D E F G"/><path d="M421.111 323.385h7.519" class="B"/><path d="M421.111 323.385h7.519" class="C D E F G"/><path d="M439.191 323.385h7.517" class="B"/><path d="M439.191 323.385h7.517" class="C D E F G"/><path d="M403.032 333.052h7.519" class="B"/><path d="M403.032 333.052h7.519" class="C D E F G"/><path d="M421.111 333.052h7.519" class="B"/><path d="M421.111 333.052h7.519" class="C D E F G"/><path d="M439.191 333.052h7.517" class="B"/><path d="M439.191 333.052h7.517" class="C D E F G"/><path d="M403.032 342.717h7.519" class="B"/><path d="M403.032 342.717h7.519" class="C D E F G"/><path d="M421.111 342.717h7.519" class="B"/><path d="M421.111 342.717h7.519" class="C D E F G"/><path d="M439.191 342.717h7.517" class="B"/><path d="M439.191 342.717h7.517" class="C D E F G"/><path d="M403.032 427.562h7.519" class="B"/><path d="M403.032 427.562h7.519" class="C D E F G"/><path d="M421.111 427.562h7.519" class="B"/><path d="M421.111 427.562h7.519" class="C D E F G"/><path d="M439.191 427.562h7.517" class="B"/><path d="M439.191 427.562h7.517" class="C D E F G"/><path d="M403.032 437.229h7.519" class="B"/><path d="M403.032 437.229h7.519" class="C D E F G"/><path d="M421.111 437.229h7.519" class="B"/><path d="M421.111 437.229h7.519" class="C D E F G"/><path d="M439.191 437.229h7.517" class="B"/><path d="M439.191 437.229h7.517" class="C D E F G"/><path d="M403.032 446.894h7.519" class="B"/><path d="M403.032 446.894h7.519" class="C D E F G"/><path d="M421.111 446.894h7.519" class="B"/><path d="M421.111 446.894h7.519" class="C D E F G"/><path d="M439.191 446.894h7.517" class="B"/><path d="M439.191 446.894h7.517" class="C D E F G"/><path d="M403.032 456.561h7.519" class="B"/><path d="M403.032 456.561h7.519" class="C D E F G"/><path d="M421.111 456.561h7.519" class="B"/><path d="M421.111 456.561h7.519" class="C D E F G"/><path d="M439.191 456.561h7.517" class="B"/><path d="M439.191 456.561h7.517" class="C D E F G"/><path d="M403.032 466.226h7.519" class="B"/><path d="M403.032 466.226h7.519" class="C D E F G"/><path d="M421.111 466.226h7.519" class="B"/><path d="M421.111 466.226h7.519" class="C D E F G"/><path d="M439.191 466.226h7.517" class="B"/><path d="M439.191 466.226h7.517" class="C D E F G"/><path d="M403.032 475.893h7.519" class="B"/><path d="M403.032 475.893h7.519" class="C D E F G"/><path d="M421.111 475.893h7.519" class="B"/><path d="M421.111 475.893h7.519" class="C D E F G"/><path d="M439.191 475.893h7.517" class="B"/><path d="M439.191 475.893h7.517" class="C D E F G"/><path d="M403.032 485.558h7.519" class="B"/><path d="M403.032 485.558h7.519" class="C D E F G"/><path d="M421.111 485.558h7.519" class="B"/><path d="M421.111 485.558h7.519" class="C D E F G"/><path d="M439.191 485.558h7.517" class="B"/><path d="M439.191 485.558h7.517" class="C D E F G"/><path d="M403.032 495.224h7.519" class="B"/><path d="M403.032 495.224h7.519" class="C D E F G"/><path d="M421.111 495.224h7.519" class="B"/><path d="M421.111 495.224h7.519" class="C D E F G"/><path d="M439.191 495.224h7.517" class="B"/><path d="M439.191 495.224h7.517" class="C D E F G"/><path d="M403.032 504.89h7.519" class="B"/><path d="M403.032 504.89h7.519" class="C D E F G"/><path d="M421.111 504.89h7.519" class="B"/><path d="M421.111 504.89h7.519" class="C D E F G"/><path d="M439.191 504.89h7.517" class="B"/><path d="M439.191 504.89h7.517" class="C D E F G"/><path d="M403.032 514.556h7.519" class="B"/><path d="M403.032 514.556h7.519" class="C D E F G"/><path d="M421.111 514.556h7.519" class="B"/><path d="M421.111 514.556h7.519" class="C D E F G"/><path d="M439.191 514.556h7.517" class="B"/><path d="M439.191 514.556h7.517" class="C D E F G"/><path d="M403.032 524.222h7.519" class="B"/><path d="M403.032 524.222h7.519" class="C D E F G"/><path d="M421.111 524.222h7.519" class="B"/><path d="M421.111 524.222h7.519" class="C D E F G"/><path d="M439.191 524.222h7.517" class="B"/><path d="M439.191 524.222h7.517" class="C D E F G"/><path d="M403.032 533.888h7.519" class="B"/><path d="M403.032 533.888h7.519" class="C D E F G"/><path d="M421.111 533.888h7.519" class="B"/><path d="M421.111 533.888h7.519" class="C D E F G"/><path d="M439.191 533.888h7.517" class="B"/><path d="M439.191 533.888h7.517" class="C D E F G"/><path d="M410.999 225.652v-76.253h27.744v76.253h-27.744" class="B"/><path d="M410.999 225.652v-76.253h27.744v76.253z" class="C D E F G"/><path d="M424.871 165.867v34.368" class="B"/><path d="M424.871 165.867v34.368" class="C D E F G"/><path d="M410.999 149.399l14.319-22.196 13.425 22.196z" class="B"/><path d="M410.999 149.399l14.319-22.196 13.425 22.196zM900.31 559.265l.144 57.252-.144-57.252z" class="C D E F G"/><path d="M391.691 533.295l7.957-61.452h161.856l6.101 61.452H391.691" class="B"/><path d="M391.691 533.295l7.957-61.452h161.856l6.101 61.452z" class="C D E F I"/><path d="M548.808 617.29l-138.069-.251v-67.373h137.818l.502 67.373" class="B"/><path d="M546.766 615.967l-133.162.358-2.865-66.659h137.818l-1.791 66.301z" class="C D E F I"/><path d="M413.834 616.981l-136.862-4.31-.456-62.561h137.82l.479 66.051" class="B"/><path d="M414.336 615.704l-138.391-.286.572-65.308h137.82v65.594z" class="C D E F I"/><path d="M333.024 616.236l-56.758.251.251-88.931h57.26l.753 87.927" class="B"/><path d="M333.776 615.712l-57.546.286.286-88.441h57.26v88.156z" class="C D E F I"/><path d="M347.196 535.347h-84.1v-19.583h84.1v19.583" class="B"/><path d="M347.196 535.347h-84.1v-19.583h84.1z" class="C D E F I"/><path d="M547.442 615.595h137.82l1.074-64.152h-137.82v69.883" class="B"/><path d="M547.612 616.482l136.575-.886 2.149-64.152h-137.82l-.904 65.039z" class="C D E F I"/><path d="M629.434 616.655l56.185-.864.716-86.901h-57.26l.295 86.288" class="B"/><path d="M629.076 616.677l57.618-.716-.358-87.072h-57.26v87.788z" class="C D E F I"/><path d="M558.315 549.665H400.982v-16.37h157.333v16.37" class="B"/><path d="M558.315 549.665H400.982v-16.37h157.333z" class="C D E F G"/><path d="M467.204 566.652c-7.016 0-12.704 5.686-12.704 12.703v35.927l25.407 1.255v-37.182c0-7.016-5.687-12.703-12.703-12.703" class="B"/><path d="M467.204 566.652c-7.016 0-12.704 5.686-12.704 12.703v36.612l25.407-.358v-36.254c0-7.016-5.687-12.703-12.703-12.703z" class="C D E F G"/><path d="M506.315 566.652c-7.015 0-12.703 5.686-12.703 12.703l-.251 37.433 25.908.251-.251-37.684c0-7.016-5.688-12.703-12.704-12.703" class="B"/><path d="M506.315 566.652c-7.015 0-12.703 5.686-12.703 12.703l-.358 36.612h26.123l-.358-36.612c0-7.016-5.688-12.703-12.704-12.703z" class="C D E F G"/><path d="M545.425 566.652c-7.015 0-12.703 5.686-12.703 12.703v38.186l25.908-1.004-.502-37.182c0-7.016-5.688-12.703-12.704-12.703" class="B"/><path d="M545.425 566.652c-7.015 0-12.703 5.686-12.703 12.703l-.358 36.612h25.048l.716-36.612c0-7.016-5.688-12.703-12.704-12.703z" class="C D E F G"/><path d="M400.982 541.481h147.576" class="B"/><path d="M400.982 541.481h147.576" class="C D E F G"/><path d="M407.407 525.48h147.576" class="B"/><path d="M407.407 525.48h147.576" class="C D E F G"/><path d="M407.407 516.147h147.576" class="B"/><path d="M407.407 516.147h147.576" class="C D E F G"/><path d="M481.193 510.219v-33.776" class="B"/><path d="M481.193 510.219v-33.776" class="C D E F I"/><path d="M441.194 510.219v-33.776" class="B"/><path d="M441.194 510.219v-33.776" class="C D E F I"/><path d="M521.193 510.219v-33.776" class="B"/><path d="M521.193 510.219v-33.776" class="C D E F I"/><path d="M427.999 532H399.11v-20.889h28.889V532" class="B"/><path d="M427.999 532H399.11v-20.889h28.889z" class="C D E F I"/><path d="M560.443 532.444h-28.888v-20.888h28.888v20.888" class="B"/><path d="M560.443 532.444h-28.888v-20.888h28.888z" class="C D E F I"/><path d="M304.443 546.223V604" class="B"/><path d="M304.443 546.223V604" class="C D E F G"/><path d="M659.998 544.444v57.779" class="B"/><path d="M659.998 544.444v57.779" class="C D E F G"/><path d="M373.776 568.444h56.889" class="B"/><path d="M373.776 568.444h56.889" class="C D E F G"/><path d="M373.776 581.777h56.889" class="B"/><path d="M373.776 581.777h56.889" class="C D E F G"/><path d="M373.776 595.111h56.889" class="B"/><path d="M373.776 595.111h56.889" class="C D E F G"/><path d="M587.109 568.444h56.889" class="B"/><path d="M587.109 568.444h56.889" class="C D E F G"/><path d="M587.109 581.777h56.889" class="B"/><path d="M587.109 581.777h56.889" class="C D E F G"/><path d="M587.109 595.111h56.889" class="B"/><path d="M587.109 595.111h56.889m256.384 21.325l-844.567-.78 842.18.451-7.224-.049 9.612.378z" class="C D E F G"/><defs ><path id="B" d="M147.898 271.74h13.748"/></defs></svg>